@startuml
abstract class AbstractStringBuilder{

}

interface Appendable{
    Appendable append(CharSequence csq)
    Appendable append(CharSequence csq, int start, int end)
    Appendable append(char c)
}

class StringBuilder{

}

Appendable <.. AbstractStringBuilder
AbstractStringBuilder <-- StringBuilder


@enduml